# xmcd CD database file
#
# Track frame offsets:
#	150
#	12965
#	28045
#	39597
#	57435
#	72177
#	83405
#	93522
#	105455
#	117570
#	132242
#	145697
#	159602
#	173607
#	181177
#	194202
#	204180
#	224037
#
# Disc length: 3181 seconds
#
# Revision: 0
# Processed by: cddbd v1.5.1PL0 Copyright (c) Steve Scherf et al.
# Submitted via: CDex 1.51
#
DISCID=fd0c6b12
DTITLE=Julie London - The Best Of Julie London
DYEAR=2002
DGENRE=Jazz
TTITLE0=Cry Me A River
TTITLE1=When I Fall In Love
TTITLE2=Fly Me To The Moon (In Other Words)
TTITLE3=I Got It Bad (And That Ain't Good)
TTITLE4=Go Bless The Child
TTITLE5=I'm In The Mood For Love (Every Night At Eight)
TTITLE6=You'd Be So Nice To Come Home To
TTITLE7=Love For Sale
TTITLE8=My Heart Belongs To Daddy
TTITLE9=Two Sleepy People
TTITLE10=Black Coffee
TTITLE11=Basin Street Blues
TTITLE12=You Go To My Head
TTITLE13=September In The Rain
TTITLE14='round Midnight
TTITLE15=You Stepped Out Of A Dream
TTITLE16=Ev'ry Time We Say Goodbye
TTITLE17=There Will Never Be Another You
EXTD=YEAR: 2002
EXTT0=
EXTT1=
EXTT2=
EXTT3=
EXTT4=
EXTT5=
EXTT6=
EXTT7=
EXTT8=
EXTT9=
EXTT10=
EXTT11=
EXTT12=
EXTT13=
EXTT14=
EXTT15=
EXTT16=
EXTT17=
PLAYORDER=
